<?xml version="1.0" encoding="utf-8"?>

<!DOCTYPE svg PUBLIC "-//W3C//DTD SVG 1.1//EN" "http://www.w3.org/Graphics/SVG/1.1/DTD/svg11.dtd">
<svg version="1.1" id="Layer_1" xmlns="http://www.w3.org/2000/svg" xmlns:xlink="http://www.w3.org/1999/xlink" x="0px" y="0px"
	 viewBox="-94.027 225.5404 4157.0542 2054.9192" enable-background="new -94.027 225.5404 4157.0542 2054.9192"
	 xml:space="preserve">
<g>
	<path d="M3953.6895,1576.6245c-6.5701,1.2632-13.1523,2.4675-19.7271,3.7065c-14.3745,2.7089-28.749,5.4178-43.1233,8.1267
		c-1.4021,0.2642-11.5393,15.4033-14.6936,14.6713c-6.2671-1.4543-14.9932,0.7052-21.3015,1.1289
		c-15.1697,1.0187-30.3396,2.0022-45.5195,2.853c-18.4116,1.0321-36.8564,1.6478-55.2986,1.3584
		c-9.4175-0.1478-18.8323-0.528-28.2271-1.2031c-3.4089-0.2451-10.5151,0.5028-13.4556-1.17
		c-3.4851-1.9828-1.6235-3.5919-3.1929-6.8929c-1.71-9.2097-3.0398-18.5294-3.3799-27.8792
		c-0.155-4.1768-46.8975-5.4482-51.5215-5.7396c-2.3181-0.1461-8.592,0.6321-10.5493-0.6508
		c-4.4363-2.9077-3.6494-20.8839-4.2527-26.5634c-2.1948-20.6621-4.3896-41.3242-6.5845-61.9865
		c-5.6624-53.3082-11.3247-106.6166-16.9873-159.9249c-3.7749-35.5393-7.55-71.0786-11.325-106.6179
		c-0.9219-8.6782-1.8438-17.3564-2.7654-26.0347c-0.7471-7.0328,0.5234-14.2444-5.9131-18.0173
		c-14.2009-8.3241-30.2256-15.3435-45.0916-22.5159c-12.9502-7.0699-26.4199-13.22-39.1499-20.65c-8.3198-4.95-18.1001,1.04-27,0.61
		c-7.8594,2.0199-16.0391,2.17-23.8086,4.3497c-1.668,0.4679-5.2004-0.506-6.8977-0.5663
		c0.8521,0.0303-1.2393-11.2804-1.6426-12.2908c-1.9314-4.8385-4.3979-5.9581-9.4749-6.6068
		c-10.4841-1.3394-20.8333,3.8679-31.2698,4.3298c-0.3928,2.4304,1.665,22.5566-0.7068,22.8844
		c-23.4497,3.24-46.6997,7.8999-70.1499,10.9199c-6.1401,1.9501-12.5498,2.1801-18.8296,3.1801
		c-3.5205,0.4-6.5605,1.21-9.8301,2.1799c-3.1802-0.1699-6.79-2.24-9.3105,0.6101c8.9719,77.74,14.0847,156.1849,21.176,234.1372
		c2.4792,25.5042,4.9585,51.0083,7.4375,76.5125c0.6106,6.2806,1.1519,14.0092-3.5002,19.0636
		c-5.9187,6.4299-16.2332,5.9386-24.5393,6.9088c-2.5212,0.2944-5.2773,0.7056-6.9714,2.5956
		c-1.0898,1.2158-1.6064,2.9249-2.9075,3.9116c-1.0542,0.7997-2.4377,0.9808-3.752,1.135
		c-5.1543,0.6051-10.3088,1.2101-15.4631,1.8151c-3.406,0.3998-27.9646,5.2313-34.6899,5.8306c-0.4497,0.04-1.3398,0.12-1.7798,0.16
		l-0.0796-0.76c-0.4805-2.48-0.8403-4.92-1.0801-7.3101c0,0-0.7803,0.04-0.7803,0.0396
		c-6.5811-81.79-13.3342-163.7656-20.1621-245.6144c-6.9187-82.9382-13.8376-165.8765-20.7563-248.8146
		c-1.1763-14.0992-2.3523-28.1984-3.5286-42.2982c-1.0823-12.9737-3.9348-25.4113-3.4331-38.5023
		c-3.4768-0.1461-6.9539-0.2922-10.4307-0.4384c-0.6416-15.6278-1.5999-31.2426-2.8735-46.8317
		c-0.637-7.7945-1.3528-15.5826-2.1475-23.3626c-0.2346-2.2983,0.2292-9.9986-1.3271-11.6179
		c-1.6277-1.6934-7.593-1.2009-9.9031-1.4379c-33.1514-3.4017-67.3105-9.2915-100.4878-9.2915c0,0-0.5801,0.12-0.5801,0.12
		c-79.9624,16.3303-159.7275,33.8648-239.6013,50.6678c-14.124,2.9713-28.248,5.9425-42.3718,8.9138
		c-7.2627,1.5278-14.5251,3.0556-21.7876,4.5834c-18.4182,3.8746-35.656,15.3682-52.687,23.7391
		c-12.5972,6.1917-25.1946,12.3832-37.7917,18.5749c-6.2949,3.0941-12.6038,6.1616-18.8855,9.2825
		c-8.707,4.3256-7.3003,11.4737-6.7559,19.9908c0.885,13.8464,1.6023,27.7056,2.4033,41.5571
		c1.6023,27.7062,3.2043,55.4125,4.8066,83.119c3.2043,55.4126,6.4089,110.8252,9.6133,166.2378
		c6.4089,110.8252,12.8179,221.6504,19.2268,332.4756c2.0737,35.86,4.1475,71.7198,6.2212,107.5797
		c1.9941,34.4843,6.9846,70.3018,6.1692,104.6886c0.0605,1.6499,0.1904,4.96,0.25,6.6099h0.6406
		c-0.6406,2.22,2.2998,7.9202-0.8506,8c-5.4199,0.4402-10.8994,0.73-16.0698,2.47c0,0-0.73,0.04-0.7336,0.0403
		c-15.4954,0.8441-16.6492-55.7864-17.241-64.5129c-1.8765-27.6708-3.73-55.3431-5.5603-83.017
		c-3.6609-55.3477-7.2295-110.7014-10.7056-166.061c-6.9524-110.7191-13.5356-221.4614-19.7493-332.2245
		c-2.4495-43.6633-4.8416-87.3298-7.1763-130.9995c-1.1526-21.5583-2.2913-43.1176-3.4158-64.6774
		c-1.0547-20.2187-8.698-61.3777-8.658-63.8978l-0.6904-0.0601c0.0605-1.76-6.6226-21.9584-10.3518-29.9189
		c-3.709-7.9173-2.0349-21.4518-2.5288-30.3333c-1.2583-22.6374-2.5168-45.2748-3.7754-67.9122
		c-2.4863-44.7227-10.7529-134.6194-12.3997-134.8451c2.9109,0.3989-4.4788-40.4583-5.6658-43.9001
		c-4.4426-12.883-9.7329-25.218-24.0972-28.8859c-8.2061-2.0955-16.8203-1.4402-25.2893-1.3616
		c-9.8674,0.0917-32.3755,1.6909-39.1497-5.7219c-3.5156-3.8471-4.9277-13.1209-7.3267-17.9704
		c-2.8-5.6605-6.6145-10.1778-10.0056-15.3906c-1.3198-2.0299-2.8096-3.92-4.1499-5.9c-0.5601-0.22-1.6699-0.6699-2.2202-0.8899
		c-1.3799-1.6901-2.7998-3.36-3.8799-5.23c-7.04-12.189-31.6614-21.748-44.8293-23.9196
		c-17.5359-2.8919-36.2302,1.2229-50.7383,11.5458c-9.5188,6.773-17.1121,15.8673-25.8992,23.5661
		c-24.134,21.1454-58.8762,9.822-87.7471,6.3083c-20.428-2.4861-40.8069-5.376-61.1208-8.6674
		c-10.157-1.6457-20.2976-3.3917-30.4199-5.2379c-6.3645-1.1608-19.0288-6.5491-25.3953-4.3454
		c-9.6802,3.4601-16.9497,11.38-21.8003,20.2302c-25.5193,42.9442-22.2454,101.3805-21.8037,149.6132
		c0.4907,53.5998,4.7039,107.0717,6.2085,160.6396c0.6121,21.793,0.7827,43.6068,0.0667,65.3995
		c-0.3579,10.8918-0.9055,21.7858-1.7871,32.6489c-0.9932,12.2388-2.3,23.1191-1.905,35.6699
		c0.4365,13.8729,0.8733,27.7458,1.3098,41.6188c0.8733,27.746,1.7466,55.4918,2.6201,83.2377
		c1.7466,55.4918,3.4932,110.9836,5.2397,166.4753c3.4932,110.9836,6.9866,221.9672,10.4797,332.9515
		c0.4829,18.9531,0.3479,37.8315,1.395,56.6387c-12.5002,5.1262-25.4597,9.0026-38.4238,12.7557
		c-8.8635,2.5662-26.0497,2.3341-30.7858,11.9296c-3.0471,6.1738-0.4388,16.9745-0.2391,23.5276
		c0.3383,11.0974,0.6766,22.1948,1.0149,33.2922c0.6934,22.7495,1.3868,45.499,2.0802,68.2485
		c0.3383,11.0973,0.6765,22.1946,1.0148,33.2919c0.2616,8.5822,3.76,25.3699,0.0491,32.5485
		c-1.7714-2.9321-1.9624-7.1382-2.0907-10.6898c-0.5005-13.8473-1.0067-27.6943-1.51-41.5414
		c-1.0067-27.6943-2.0134-55.3885-3.0201-83.0828c-2.0133-55.3885-4.0267-110.7771-6.04-166.1655
		c-2.3794-92.7924-5.9227-185.767-10.293-278.4678l0.1802-0.88c0.4794,0.03,1.4175,0.0699,1.8979,0.0999
		c1.453,0.0903,2.8555,0.1953,4.2826,0.0146c0.4857-3.5469,0.5151-7.363,0.7213-11.0104
		c-0.7281-4.1595,0.7814-13.3499-1.1174-16.7224c-2.4032-4.2684-9.9761-4.1017-14.9307-5.094
		c-11.7698-2.3572-23.423-6.9152-35.3668-7.0076c-11.2648-0.0873-21.8018,2.2076-32.4753,5.5739
		c-7.4033,2.335-13.4854,1.2926-13.9724,9.8628c-0.2988,5.2596-0.4231,10.7006-0.0583,15.9596
		c0.5085,7.3313-0.298,5.6925,6.2091,7.4336c14.0898,3.77,28.5503,5.9401,42.75,9.3c1.7803-0.03,5.3501-0.0801,7.1401-0.1
		c3.5911-0.6683,7.1622-1.5756,10.713-2.5626c8.312-2.3108,5.3994,23.5789,5.5997,29.8616
		c0.4423,13.8711,0.8845,27.7423,1.3269,41.6134c0.8845,27.7422,1.769,55.4845,2.6537,83.2267
		c1.769,55.4845,3.5382,110.969,5.3074,166.4534c2.0741,40.4438,2.5837,81.033,3.8744,121.5104
		c0.6545,20.5292,1.3092,41.0582,1.9637,61.5874c0.3185,9.9872,0.6368,19.9744,0.9553,29.9614
		c0.3038,9.5293,4.2035,22.038-9.674,17.5084c-0.4102-0.0901-1.2202-0.27-1.6304-0.3601c-7.23-0.22-14.46-0.8-21.5-2.5
		c-4.4497-1.6399-8.1597,1.6899-12.4697,1.5901c-1.4702,0.0601-3.4399-0.4302-3.3403,1.6799c0.2603,4.73,0.0801,9.4199,0.21,14.25
		l0.9502,0.04c0.0703,1.21,0.1802,2.4399,0.3501,3.7c-0.29,3.26-0.2798,6.8801-0.3301,10.27c0.0103,0.5,0.0298,1.5,0.0503,1.99
		c-0.2305,2.8999-0.0903,6.1799-0.2603,9.23c0.0698,0.6899,0.1997,2.0701,0.27,2.77l0.9697,0.02
		c-0.71,4.28,1.9404,10.6199-1.6899,13.4299c-1.4399-0.21-2.8501-0.4299-4.23-0.6499c-0.54-5.3801,0.5903-10.96-0.8798-16.1243
		c0.0309-5.3856,0.8651-5.5571-3.6726-7.259c-4.1941-1.5729-10.4086-1.1301-14.8843-1.6166
		c0.3258-1.4655,0.6428-3.0448,0.0569-4.4269c-0.5858-1.3822-2.485-2.2853-3.6436-1.3306c-1.243,1.024-0.6455,3.0106,0.052,4.4623
		c-4.3561,1.4196-9.394,2.006-13.3087-0.3744c-3.9148-2.3802-5.4738-8.6588-1.9604-11.5996
		c1.2887,1.3407,3.5083,1.6672,5.1284,0.7543c1.6378-2.7704-2.071-6.3204-5.1818-5.4952c-3.1108,0.8252-4.8602,4.2256-5.236,7.4219
		c-0.3757,3.1964,0.2277,6.4408-0.0682,9.6455c0,0.7231-28.254,2.0238-31.3717,2.1025c-0.1899-1.4099-0.3101-2.79-0.3701-4.1499
		c0.0303-0.45,0.1001-1.3601,0.1299-1.8101c1.8799-5.23-5.9897-3.74-6.8301,0.04c-0.7695,1.23-1.4497,2.53-2.1396,3.8201
		l-0.8203,0.1699c-0.1793,0.3293-0.5482,0.9873-0.7289,1.318c-2.9178,5.3445-3.3937-2.5499-3.4641-4.5555
		c-0.1902-5.4099-0.2473-10.828-0.3708-16.24c-0.2378-10.4103-0.4755-20.8206-0.7131-31.2308
		c-0.4755-20.8206-0.9509-41.6411-1.4263-62.4617c-0.9509-41.6412-1.9017-83.2823-2.8527-124.9235
		c-0.7251-26.6465-1.2172-53.3014-1.8257-79.9508c-0.5925-25.9487-2.4214-52.2169-1.5681-78.1558l-0.9399-0.11
		c-3.4199-0.6-6.6104-0.7-9.9805-0.95c-5.1396,0.42-10.4097,0.3199-15.4497-0.53c-1.54-0.1699-3.0503-0.3099-4.5503-0.4199
		c-2.9795-0.5801-5.5796-0.7301-8.4497-0.6201c-1.6299-0.1-4.9102-0.3099-6.54-0.4199c-3.0601,0.1699-6.3101,0.0599-9.23,0.24v-1.02
		c-3.1499-0.22-5.9697-0.01-8.9697-0.27c-1.7803,0.3101-3.5605,0.5601-5.3203,0.6801c-0.4199-0.12-1.2798-0.34-1.71-0.4601
		l0.0801-0.7999c-2.8203-0.04-5.5801,0-8.2998,0.09c-1.8701-0.1799-3.7202-0.3199-5.5503-0.46
		c-4.8198,0.34-9.7603,0.3199-14.46-0.54c-0.4399-0.0599-1.3398-0.16-1.7798-0.21c-0.0303-4.05-0.0205-8.05,0.0098-12.02
		l-0.9697-0.01c-0.0801-4.03-0.1904-8.01-0.3301-11.95c0.3599-2.12,0.5498-4.24,0.6196-6.3501l-0.2998-0.75l-0.71-0.0599
		l-0.4199-0.8c-4.0103-0.09-7.98-0.1-11.8999-0.0399c-1.6201-0.1001-3.2002-0.1801-4.7705-0.29
		c-0.8599,0.13-2.5898,0.39-3.4497,0.52c-1.5-0.28-4.4897-0.8201-5.9897-1.09c-3.3003-0.14-6.7803-0.39-9.9502-0.9601
		l-0.7998-0.1599c-0.0303-1.9901-0.0503-3.9501-0.0605-5.9c0.0503-3.4301-0.0098-7.04,0.1401-10.36
		c-0.02-0.4501-0.0601-1.3301-0.0898-1.77c0-3.02-0.1699-6.23-0.0103-9.12c-0.0698-2.7101-0.0796-5.37-0.0098-7.99l-0.9697,0.1699
		l-0.9702,0.15c-2.0503,0.05-2.0801-1.83-2.4102-3.3099c-3.1401,1.95-0.25,6.3999-1.3501,9.24
		c-0.4199-1.13-0.8496-2.2201-1.2798-3.29c-0.4502,0.09-1.3501,0.28-1.8003,0.37c-0.4897,0.14-1.4795,0.4-1.9697,0.54
		c-1.73-0.9401-3.4697-1.86-4.2197-3.79l-0.4404-0.77c-1.9097-0.5699-2.1396-2.77-2.7598-4.33c2.0298,0.6,3.8198,1.96,6.02,2.13
		c1-0.5601,2.0898-0.89,3.2598-1c0.5703-1.0901,1.0801-2.2101,1.6499-3.29c0.8003-2.1899,2.4502-4.45,5.1001-3.76
		c0.1304,0.8201,0.3701,2.4501,0.4902,3.26c0.3198-2.51,0.6099-4.98,0.8799-7.39c-4.5298-3.58-8.8599-7.4299-12.4199-11.9399
		c-0.4199,0.3199-1.2798,0.96-1.7002,1.2799c-3.9697,4.03-7.6499,8.3401-11.3398,12.63c-0.2202,0.28-0.6602,0.8201-0.8901,1.0901
		c0.0303,4.35,0.0601,8.6799,0.1802,13.1l-0.02,1c0,0.72,0,2.17,0,2.89l0.0098,1.08c0.0103,0.73,0.02,2.1901,0.0303,2.92
		c-0.0303,1.7899-0.0303,3.6799-0.8604,5.35c-1.3198,0.86-2.6597,1.67-3.9795,2.49c-1.6904,0.9-3.8203,0.9401-5.2803,2.16
		c-0.29,0.2899-0.8799,0.88-1.1699,1.1699l-0.8203-0.1499c-0.1597-3.0901,0.04-5.8401-0.0396-8.79l-0.7603-0.4
		c-1.1001-0.66-2.2002-1.26-3.2598-1.85c0.1201-0.42,0.3799-1.25,0.5098-1.67c1.29-0.09,2.5103-0.63,2.9399-1.96
		c0.1499-0.42,0.4502-1.26,0.6001-1.6899c-0.4297-0.0701-1.3101-0.2201-1.7402-0.3c-1.8799-0.27-3.7295-0.49-5.5298-0.97
		l-0.9497-0.15l-0.9204-0.04c0.0903,0.41,0.27,1.2101,0.3604,1.62c0.9097,1.42,1.8599,2.8401,2.8896,4.23
		c-2.77,0.01-8.3101,0.03-11.0898,0.04c-2.4199,0.3-2.9702-2.85-5.1997-3.15c0.2798-0.5,0.8398-1.51,1.1299-2.02
		c1.0898-0.73,2.2798-1.3099,3.46-1.9399c-4.4199-0.9301-8.9102-0.9401-13.3203-0.89c-0.5195,0.0601-1.5596,0.17-2.0801,0.22
		c-0.2896-0.27-0.8696-0.8099-1.1499-1.08c0.1104-2.14,0.2803-4.26,0.4604-6.37c-0.3301-0.45-0.9702-1.35-1.29-1.8
		c-1.8301-1.9299-4.46-2.09-6.9302-2.1899c-0.8403-0.74-1.79-1.16-2.8403-1.25c-1.4697,0.14-2.8896,0.4199-4.2695,0.8199
		c-2.0703-0.24-4.1304-0.33-6.1699-0.36c0.0996-1.79,0.2998-5.37,0.3999-7.16c-0.25-0.49-0.73-1.47-0.9702-1.96l-0.3501-0.71
		c-0.2798-3.23,0.8999-6.4401-0.6997-9.29l-0.3101-0.71c-0.8101-3.9601,1.4199-8.64-0.73-12.2001
		c-0.5801-3.3899,0.79-7-1.0503-10.01c-0.0098-3.7599-0.3296-7.4399-0.98-11.0499l-0.1201-0.78
		c-0.8496-3.74-1.1196-7.48-0.8296-11.22l-0.1099-0.75c-0.2803-0.28-0.8403-0.83-1.1201-1.11
		c0.0698-2.8101,0.1997-5.5701,0.4097-8.27c-0.1196-0.39-0.3599-1.17-0.4697-1.5601c-0.27-0.48-0.79-1.4299-1.0503-1.9099
		c0.0703-2.8201,0.1304-5.5901,0.1802-8.3301c-0.8599-3.6-1.2202-7.21-1.0801-10.83l-0.21-0.87c-1.0298-2.96-0.79-6.33-0.7598-9.3
		c-0.9302-3.75-1.1499-7.51-0.6499-11.2799l-0.29-0.6801c-1.6001-2.59-3.9004-4.63-3.29-8.12l1.0698,0.01
		c3.0498-1.52,2.4302-5.52,3.9497-8.17c0.3901-1.26,0.9102-2.4399,1.4902-3.59c0.2598-1.66-0.1201-2.66-1.1299-3
		c-1.6201-0.49-4.0898,0.4399-5.0801-1.11c-0.2002-0.3101-0.6001-0.9301-0.7998-1.25l-0.8701,0.26
		c-0.1499-2.0901-1.52-3.3301-3.1802-4.3c0.9702-1.35,2.3804-2.33,3.3101-3.73c-0.1401-1.64,1.3398-4.45-1.4502-4.08
		c-2.5195-0.6901,0.1704-2.5601,1.7603-2.2001c-1.46-2.28,1.7603-7.2-1.9199-6.7899c-3.8198,0.5,0.0698-1.67,1.1099-2.8501
		c-1.4697-1.4199-3.2197-3.8999,0.3599-2.97c0.9302-1.0699,0.0801-2.12-0.48-3.08c-2.71,0.6-1.8496-2.0601,0.0103-2.47
		c-0.9302-0.91-1.9702-1.6901-2.8804-2.54c1-0.42,2.0503-0.73,3.1504-0.9401c0.7998-0.76,0.8101-1.5299,0.02-2.2999
		c-0.8301,0.03-2.4902,0.09-3.3203,0.12c0.79-1.8101,2.4702-2.98,3.5903-4.5601c-4.4902,0.49,0.4199-2.2899-1.5903-4.13
		c-1.5098-1.5699,0.98-2.88,1.5-4.3199c-0.1597-1.28-0.2798-2.54-0.3599-3.78c-0.75-0.0699-2.23-0.2-2.98-0.27
		c-0.5898-2.0499,1.5698-2.4299,2.9702-3.08c0-1.5701-0.04-3.12-0.1504-4.64c-1.2998-0.45-2.5801-0.9-3.8198-1.36
		c0.9302-0.97,2-1.79,2.98-2.7c-3.5098-2.2101,0.4199-5.3301,0.96-8.1901l0.0103-0.8099c-1.4102-0.1901-3.6001-0.02-3.8501-1.8301
		c0.8198-0.5499,1.6602-1.0599,2.5298-1.54c-0.7998-1.75-3.0498-4.59,0.6401-3.49c0.3701-1.88,0.4302-3.83,0.2402-5.7
		c-3.21-1.8-2.8203-5.8101-3.7202-8.89c-1.6499,0.8101-1.8501,2.72-2.5103,4.25c0.0103,2.47-1.3198,4.46-2.7798,6.33
		c-0.29,2.4301,3.9897,5.5801,0.3198,6.6001c-1.5,0.58,1.1201,1.89,0.46,2.9299c-1.8799,3.4601,1.2305,7.24,0.0503,10.92
		c0.1899,1.08,0.3398,2.1799,0.4497,3.3099c0.8003,2.01,1.4805,4.2001,0,6.12c0.1104,3.0701-2.9497,8.92,1.3403,9.0701l0.8799,0.15
		l-0.1201,4.45c-0.5298,0.1-1.6001,0.3101-2.1299,0.42c-0.4497,2.2999,2.2397,4.15-0.5298,5.87
		c2.5898,4.11,0.8398,9.33,1.1299,13.95c2.3301,1,1.6099,3.27-0.48,4.03c1.2197,1.89-0.1401,4.55,2,5.98
		c-2.0601,1.72-1.3003,4.5601-1.6201,6.92c2.8101,1.98-1.5601,3.39-0.0498,6.37c-0.2603,0.21-0.79,0.65-1.0601,0.87
		c-0.3301,0.15-0.98,0.46-1.3101,0.61c-7.25-3.09-4.4502,1.97-3.9102,4.45c-0.04,0.51-0.1099,1.52-0.1499,2.03
		c1.02,2.45,1.9697,4.98,2.3398,7.65l0.7603-0.0601c4.3901-1.2999,4.1401,5.12,2.27,7.38c-2.2603,0.05-3.9199-1.21-5.25-2.85
		c-1.5703-1.42-2.8203-3.28-4.6899-4.25c-3.73,4.3-7.1802,8.84-11.02,13.05c-0.98,2.14-1.3203,4.48-1.2202,6.85l0.8501-0.33
		c0.79-0.5,1.6099-0.52,2.46-0.05c1.02,0.3099,2.04,0.66,3.0801,1.05c-0.2402,1.63-0.7202,4.88-0.9502,6.5099
		c0.1299,2.7201-4.96,4.4401-4.4697,0.89l-0.9302-0.12c-0.1201,3.2201,0.0103,6.7001,0.0103,10.02l0.96,0.0701
		c0.5195,0.0199,1.5698,0.0699,2.0898,0.1c0.3301-0.34,0.9902-1.02,1.3198-1.36c-0.4897-1.4601,0.0503-2.0601,1.6201-1.8101
		c0.46-0.0499,1.3901-0.14,1.8501-0.1899c1.7197,0.3199,3.4399,0.7799,5.1797,1.21l0.9302,0.11c-0.0601,1.63,0.3501,3.15,1.98,3.88
		l0.23,0.58c0.9502,2.28,2.96,8.0601-1.0898,7.4501c-0.77,0.1-2.3003,0.3099-3.0601,0.4199c-0.77-1.84-1.3599-3.72-2.1099-5.5299
		l-1.0303-0.0901c-1.23,0.37-2.02,1.3101-2.77,2.28c-1.0996,1.51-1.6099,4.3-4.0098,3.87c-0.4902,0.04-1.4702,0.11-1.96,0.15
		c-0.2002,1.35-0.1802,2.83-0.9902,4.04c-1.3198,2.38-2.6201,4.77-3.9697,7.14l-0.3203,0.6399l0.0601,1.02
		c-0.0801,2.87,0.1304,6.04,0.1001,9.04c0.0303,4.71-0.04,9.37,0.0698,14.15c0.02,1.66,0.0601,4.98,0.0703,6.64
		c-0.2002,7.75-0.1802,15.5399-0.04,23.34c-0.23,0.25-0.71,0.76-0.9399,1.02c-0.2202,0.25-0.6602,0.75-0.8799,1
		c-2.1201,0.14-3.75,1.52-5.4805,2.5699c0.1196,1.823,0.2451,3.6769,0.3667,5.5374c0.001,0.3088,0.0161,0.6262,0.0635,0.9626
		c0.0601,1.86-1.7998,2.35-3.1802,2.9601c-2.6797,1.22-5.1299,3.1399-8.0596,3.6699c-0.3501-5.3099,0.7397-10.99-0.8301-16.02
		c-0.3101-0.47-0.9199-1.4199-1.23-1.89c-3.8501-3.1899-7.2104-6.85-10.8999-10.1499c-0.4805,0.0699-1.4404,0.1899-1.9204,0.26
		c-3.8999,4.45-7.0796,9.5199-11.2798,13.73l-0.8604,0.22c0.0103,5.73-0.0396,11.5-0.2695,17.3
		c0.0801,0.4299,0.25,1.2899,0.3301,1.72c-0.0605,1.75-0.1904,5.25-0.2603,7c-0.46,0.3199-1.3901,0.97-1.8501,1.29
		c-0.77-1.4901-1.1001-3.4501-3.0698-3.64c-0.2402,0.96-0.4502,1.95-0.6099,2.96c-0.2603,0.59-0.7803,1.77-1.04,2.36
		c0.1499,0.5,0.4297,1.49,0.5698,1.99c0.4702,3.03,0.1499,5.9,0.3599,9.1c-0.5,0.3401-1.5,1.02-2,1.36
		c-1.3896,0.8401-2.6997,1.8-4.0601,2.6801c-0.3252-0.0469-0.6206-0.0621-0.9038-0.0638c-0.7231-0.0524-1.5649-0.1156-2.0659-0.1561
		c0.4199-3.5701,0.2197-7.17,0.6699-10.72c-0.5801-1.17-1.1001-2.3201-1.6699-3.42c-0.5103,0.37-1.52,1.11-2.02,1.48
		c-1.0703,0.84-2.52,0.77-3.7603,1c-3.6499-0.88-6.0601,1.28-7.4497,4.54l-0.7603,0.37c-0.5498,2.4399,1.5303,6.9299-2.0601,7.08
		l-0.2998-0.9c0.04-1.73,0.0898-3.4199,0.0801-5.1c-0.3999-2.47-0.6899-4.9-0.8604-7.2999c0-0.4801-0.0098-1.4401-0.0195-1.92
		c-3.8901-3.47-7.7202-7-11.1001-10.9301c-0.6899-0.01-2.0601-0.0499-2.7402-0.0699c-2.0698,2.89-4.3398,5.63-6.71,8.28
		c-1.02,1.95-2.6401,3.45-4.3696,4.7799c-0.0605,1.5901-0.0605,3.2101-0.0303,4.8501c-0.0898,2.61-0.0898,5.2799-0.0098,7.99
		c0.0098,0.73,0.04,2.1899,0.0596,2.9199c-0.0698,2.6901-0.0801,5.4301-0.0298,8.2201c-0.1401,3.21-0.0698,6.7-0.04,10.01
		c0,2.0199,0.1099,4.0499,0.2397,6.11l-0.3599,0.6799l-0.8198,0.24c-1.96,1.11-3.9702,2.12-5.9302,3.2001
		c-9.3101,5.01-18.9697,9.34-28.0698,14.73c-0.2998,0.21-0.8999,0.61-1.2002,0.8199c0.29,13.14,0.1904,26.29,0.02,39.4601
		c0.3999,10.22-0.04,20.4399,0.1499,30.7c-0.0195,25.66-0.0298,51.33,0,77h0.9805c0.0298,6.66-0.0703,13.29,0.0698,20
		c-0.1201,4.9301-0.04,10-0.0698,15c0.0498,10.3199-0.0601,20.64,0.0195,31c-0.04,12.3199-0.04,24.65,0,37
		c-0.0796,6.29,0.0103,12.65-0.0298,19c0.1401,3.11-0.1899,5.66-0.0298,8.96c-3.9805,0.03-7.9302,0.02-11.8403-0.0499l-0.8999-0.11
		c-4.46-0.01-8.8301,0.1899-13.21,0.2l-0.0098-1.03c-3.8701-0.34-7.5601-0.03-11.0903,0.9301c-0.2998,0.21-0.8999,0.65-1.1997,0.87
		c-2.8804,1.1-5.8301,2.02-8.5703,3.45c-6.2798,0.91-2.2598-7.8099-2.2798-11.3099l1.0898,0.01
		c0.48,0.01,1.4399,0.0199,1.9199,0.0299c0.1499-3.5399,0.6304-6.9099-0.4897-10.23l-1.0503,0.02l-1.0098-0.04
		c-7.1499-0.86-14.5-1.36-21.5698-0.0199c-0.4102,0.08-1.2305,0.2599-1.6401,0.34c-0.8599,0.0499-2.5698,0.13-3.4302,0.1799
		l0.0303,0.7101c0.2598,3.0399,0.1099,5.85,0.3096,9.0599l0.8101,0.3401c0.4902,0.2699,1.48,0.8099,1.9702,1.08
		c0.1499,5.5499,0.75,11.34-0.46,16.89c-3.5601,1.73-7.8101,2.5601-10.3398,5.8401c-0.8403,0.8298-1.9902,1.25-2.9805,1.8599
		l-0.96,0.1599c-0.6699,13.6001,1.1104,27.6802-0.9097,41.02c-0.2402,0.3201-0.7202,0.9502-0.96,1.27l0.1797,0.73
		c-1.0298,1.3901-2.3398,2.8201-4.1997,2.8901c-1.1001,1.3-2.21,2.5898-3.2402,3.97c-1.71,0.02-5.1396,0.05-6.8501,0.0701
		l-0.0601,0.73c-2.6299,0.79-5.1597,2.0999-7.9399,2.2c-0.4399-3.47,0.8101-7.05-0.98-10.1401
		c-0.1563-5.9207,0.4641-12.1359-0.0439-17.9415c-1.4548-0.0187-2.8695,0.1692-4.327,0.3118
		c-0.469-5.2041,1.3102-10.3065,2.5573-15.3806c1.2421-5.0541,1.1511-9.1643-0.0286-14.1522
		c-1.2826-5.4233-1.2537-10.5614-1.256-16.3079c-0.0054-13.1865-0.0431-26.3734,0.0983-39.5594c-0.48-0.23-1.4497-0.7-1.9302-0.9299
		c-20.554-0.3014-40.7927-3.3367-61.3464-6.0554c-5.236-0.6926-13.6301-2.098-18.26,1.3724
		c-5.0463,3.7825-2.563,14.6409-2.563,20.7629c0.0098,0.75,0.0195,2.25,0.0298,3c0.02,11.66-0.1899,23.35,0.0898,35.04
		c-6.0698-0.0901-12.0898-0.04-18.1099-0.0601v-0.97c-5.6699-0.0701-11.3301,0.03-16.9502-0.05
		c-0.21-9.13-0.1299-18.24,0.2305-27.3199c-0.3403-0.15-1.0103-0.4501-1.3501-0.6c-0.7402-0.02-2.2002-0.0701-2.9302-0.1001
		c-0.0303,9.3301,0.04,18.6801-0.0498,28.05l-0.9502,0.05c-1.6699,0.03-3.3398,0.01-4.98-0.0601
		c-0.0601-7.66-0.0898-15.29,0.1201-22.89c-0.2402-0.3199-0.7202-0.98-0.96-1.3099c-0.7002-0.91-1.5103-0.91-2.4302,0.01
		l-0.8599,0.48c0.0298,5.14,0.21,10.4299,0.0601,15.64c-0.5103,0.36-1.5303,1.0699-2.0503,1.4199
		c-0.23-1.5699-0.71-4.72-0.9497-6.2899c0.0298-4.4401,0.1196-8.91,0.2798-13.25c-0.2998-0.4501-0.8999-1.36-1.1997-1.8101
		c-1.2603-1.4399-2.4902-2.88-3.8301-4.1899c-2.0503,1.0499-4.1304,2.0399-6.1304,3.1699
		c-8.6956-0.0656-17.3458-0.0186-26.0398,0.1964c0.3707-2.0049-1.9449-3.6383-3.979-3.499s-3.7889,1.3931-5.5614,2.4008
		c-5.7285,3.2572-12.7357,4.1895-19.1166,2.5436c-0.2625-3.327-4.4257-4.7177-7.7628-4.6815
		c-3.3373,0.0361-7.1592,0.5128-9.5552-1.8107c-5.6184,1.4246-4.2437-2.6018-4.1898-7.0995
		c0.0645-5.3961,0.1152-10.7925,0.1729-16.1886c0.1107-10.3773,0.2216-20.7546,0.3323-31.132
		c0.2216-20.7545,0.4431-41.5092,0.6647-62.2638c0.4431-41.5093,0.8864-83.0184,1.3295-124.5277
		c0.1196-11.2064,0.2393-22.413,0.3589-33.6194c0.0559-5.245,3.3804-24.4685-0.7332-28.2485c-0.5103-0.23-1.54-0.6901-2.0503-0.9301
		c-3.3799-0.2-6.5601-0.0599-9.8701-0.13c-0.02-0.77-0.0698-2.3099-0.0898-3.08c-1.0297-0.3-2.0599-0.5601-3.0696-0.8
		c-2.7766-0.6599-0.2363-21.0673-1.0375-23.8424c-1.5201-5.2656-3.1189-4.1876-8.6134-4.4407
		c-3.1348-0.1444-6.5549,0.0756-9.6453-0.4506c-4.9417-0.8412-3.9417,0.2628-4.5284-4.4877
		c-0.6284-5.0876-1.8062-15.2465-0.3146-20.0938c0.4431-1.9919,1.9607-5.3036-0.1069-6.8915
		c-2.1727,3.749-8.2084,4.3682-11.097,1.1385c-2.1024,2.0289-5.5632,2.4774-8.1135,1.0515c1.2665-1.2794,2.533-2.559,3.7994-3.8385
		c-0.2305,0.2329-4.4323,0.2974-5.5179,1.0692c-0.6194-0.6005-0.5889-1.2037-0.5453-2.0542c-0.29-5.51,0.1001-10.91-0.4702-16.3502
		c-0.8184-5.4849-50.5264-4.6556-56.5793-4.955c-0.0701-3.605-0.1401-7.2098-0.2102-10.8148
		c-1.3368-0.0634-2.6735-0.1267-4.0103-0.1901c0.011,3.6381,0.022,7.2761,0.0331,10.9142c-7.048-0.2014-14.096-0.4028-21.144-0.6042
		c-1.6421-0.0469-3.4438-0.1567-4.6388-1.2839c-2.2466-2.1194-0.7458-5.7893,0.3641-8.6715
		c1.1099-2.8823,0.6281-7.4186-2.4603-7.4562c-0.0214,5.3872-0.0428,10.7745-0.0643,16.1617
		c-5.7156,0.5377-11.5328-0.0253-17.0392-1.6489c1.6281-1.2578,1.8121-3.9846,0.3679-5.4498
		c-1.4443-1.4651-4.1735-1.3202-5.4545,0.2897c0.4118,1.746,0.8236,3.4918,1.2354,5.2378
		c-7.9045-0.2474-15.469,3.1444-21.0095,8.6913c-0.2598,0.26-0.77,0.77-1.0298,1.03c-4.8604,4.45-10.02,8.5599-15.0103,12.87
		c-0.4697,0.0699-1.4199,0.21-1.8896,0.29c-0.8301,4.12,1.3198,9.48-2.2402,12.7599c-4.6899,4.3401-9.8101,8.14-14.7998,12.12
		c-0.2603,0.2301-0.79,0.6901-1.0503,0.91c-1.6201-0.0699-3.23-0.14-4.8301-0.08c0.1802,2.22,0.3901,4.5,0.6401,6.83l-0.0898,0.92
		c-0.6099,3.72-0.8599,7.5-0.7603,11.35c-6.5596,5.42-13.5298,10.3-20.0098,15.8199c-0.29,0.4701-0.8901,1.42-1.1802,1.89
		c-1.5098,4.49-0.7798,9.61-0.6797,14.39c-2.4399,2.98-5.9702,4.77-9.0703,6.97c-2.1299,2.51-4.8901,4.3501-7.2197,6.66
		c-0.4502,0.0801-1.3403,0.25-1.79,0.34c-0.1401,6.2301-0.1201,12.53-0.0801,18.8201c-0.0601,1.5699-0.1299,3.16-0.23,4.77
		c-2.4776,39.8502-1.7943,80.3463-2.7656,120.33c-1.0081,41.499-2.0161,82.998-3.0242,124.4971
		c-0.5141,21.1642-1.0282,42.3284-1.5423,63.4926c0.0267-1.0988-6.9928,2.9849-7.304,2.8148
		c-1.9094-1.0432-0.3935-6.9515-0.3832-8.6072c0.0645-10.3912,0.1407-20.7823,0.2332-31.1735
		c0.185-20.782,0.4291-41.5635,0.7324-62.3442c0.6066-41.5613,1.4496-83.1191,2.5291-124.6709
		c0.64-24.6351,2.1039-49.4253,1.6846-74.0187c0,0-0.9702-0.0499-0.9717-0.0499c-2.1588-0.0084-5.485,0.4802-7.4927-0.3616
		c-1.0656-0.4468-1.1412-2.7534-2.6431-3.4984c-4.1981-2.0825-12.1296-1.5067-16.7972-1.8975
		c-9.6609-0.8088-19.3186-1.0297-29.0087-0.9753c-6.3335,0.0355-6.0277,0.0331-6.0685-6.301
		c-0.0314-4.8755,0.5363-9.9525,0.2514-14.7963c-0.0796-1.4299-0.1597-2.85-0.2197-4.23c-0.0098-5.33-0.04-10.72,0-15.99
		c0,0,0.9871,0,0.9902,0c-0.309,0,0.5233-15.192-0.0942-16.6228c-2.1434-4.9658-9.0651-3.2651-14.5134-3.5559
		c-13.2197-0.7054-26.4395-1.411-39.6592-2.1165c-26.4395-1.411-52.8789-2.822-79.3184-4.233
		c-4.9553-0.2644-10.1368-0.809-14.27,2.1345c-4.1942,2.9901-5.6466,8.9482-10.8649,10.4006
		c-6.5906,1.8345-16.9386-0.5934-23.8055-0.8682c-16.8242-0.6735-33.6485-1.3469-50.4728-2.0204l-0.7803-12.3296
		c-6.2504-2.1837-22.2724,1.8456-24.5153-5.0736l0.1477-22.757c0,0-14.0988-2.3313-18.4625-2.5713
		c-7.6991-0.4233-15.3981-0.8466-23.0971-1.2699c-3.7354-0.2053-7.5643-0.4-11.1377,0.707
		c-5.191,1.6082-8.1189,6.9657-11.2667,11.0259c-1.6299,2.41-0.52,6.0701-1.1201,8.9301c-0.8296,4.96-0.8599,10.12-0.7397,15.1799
		c-0.0103,4.36,0.0103,8.8201,0.1602,13.27c-3.2002-0.25-6.3301-0.3199-9.5-0.28c0,0-0.9656,0.1892-0.9702,0.1901
		c-9.8694,1.9333-19.0758,14.335-22.1533,24.1658c-2.5623,8.1849-2.9207,16.8726-3.2594,25.4425
		c-3.2293,81.6899-6.4586,163.3798-9.6878,245.0696c-0.315,7.9677-0.7821,16.4139-5.3044,22.9813
		c-2.7574,4.0045-6.8167,6.9648-9.632,10.929c-4.0479,5.6998-2.3154,13.7544-2.6011,20.2883
		c-0.4225,9.6626-1.601,19.2917-3.5251,28.7703c-0.3535,1.7415-0.7862,3.5806-2.0429,4.8369
		c-3.6561,3.6548-10.3067-0.4781-14.952,1.7902c-5.7302,2.798-4.627,13.1665-10.7104,15.0787
		c-1.5498,0.4871-3.2444,0.249-4.8206,0.6425c-1.5763,0.3934-3.1417,1.9003-2.6335,3.4434c2.1768-2.0928,5.642-2.7152,8.411-1.511
		c1.793,0.7797,5.4234,4.0444,4.4171,6.4005c-0.8141,1.9063-11.0739,0.6471-13.0353,0.6376
		c-9.9254-0.0485-19.8507-0.0942-29.7761-0.1412c-19.2993-0.0916-38.5987-0.1831-57.898-0.2747
		c-4.0673-0.0193-8.2369-0.0215-12.0537,1.384c-3.8168,1.4055-7.2678,4.5391-7.8562,8.5636c-0.7092,4.85,2.7774,9.6678,1.77,14.4647
		c-0.7016,3.3407-3.4007,5.8195-5.6727,8.3672c-8.1917,9.186-12.0209,22.1034-10.1588,34.2698
		c-0.0592-0.386-17.7146,0.26-19.4265,0.2878c0.9826,0,6.1657-120.4601,6.7283-131.452c1.1356-22.186,2.2712-44.3719,3.4068-66.558
		c0.5678-11.093,1.1356-22.186,1.7034-33.2789c0.453-8.8503,3.4108-21.355,0.6488-29.7729c2.953,0.1987,6.4667,1.1383,9.6642,0.8352
		c2.1602,0.5299,4.3101,1.1799,6.5303,1.51c2.2998,0.25,4.6201,0.48,6.96,0.6899c0.1401-0.4301,0.4199-1.3,0.5601-1.73
		c5.3101-6.3,7.7598-14.26,9.8501-22.0601c-0.0103-4.2,0.02-8.35,0.0898-12.47c-0.54-1.5-1.0498-3-1.4199-4.51
		c-1.4399-3.3199-3.5801-6.6899-7.1602-7.85c-7.0098-2.5-14.3501-4-21.5698-5.71c1.4302-1.6901-2.3701-8.2101,1.9497-7.78
		c2.3301-0.3201-0.5298-3.13-1.1797-4.12c0.1396-1.6801,0.25-3.6801,2.0698-4.34c1.9502,0.48,3.8999,1.0299,5.8701,1.5
		c2.29,0.62,4.6099,1.13,6.98,1.4099c2.6201,0.12,5.3301,0.9701,7.9902,0.54c4.9697-6.83,8.1899-14.74,10.0996-22.92
		c0.7202-7.8999,0.4199-16.2999-4.0601-23.09c-5.5498-2.96-11.8999-3.75-17.71-6.03c-2-0.9199-4.1899-0.7899-6.3101-0.5399
		c-2.2397-2.15-1.5195-5.4301-1.8398-8.1801c0.79-0.09,2.3501-0.26,3.1401-0.35c-0.2402-1.54-1.3999-2.59-2.3003-3.73
		c0.25-1.38,0.1304-2.9501,1.3804-3.8301c2,0.25,3.9897,0.61,6.02,0.5801c0.3696,0.01,1.1196,0.0299,1.4897,0.0399
		c2.9902,1.4,6.3301,1.4701,9.54,2.24c5.5898,1.02,6.8003-5.9099,9.3198-9.4299c1.5703-3.6801,3.1504-7.39,3.77-11.36
		c0.3403-1.02,0.6401-2.04,0.9102-3.04c0.4302-3.6899,1.96-8.17-0.1802-11.53c0.3003-2.13,0.4204-4.6499-1.75-5.7899
		c-1.3296-2.62-3.2998-4.8101-5.5898-6.5601c-5.3101-1.27-10.7197-2.2-15.8398-4.13c-2.3003-0.8099-5.0302-0.73-7.06-2.04
		c-3.6254-2.3398,1.976-37.761,2.222-42.5197c0.5325-10.3005,0.9611-20.6064,1.2858-30.9193
		c0.5176-16.316-0.8062-18.5979-18.42-21.057c-14.9788-2.0913-29.4641,4.5648-43.397,3.345
		c-6.2412-59.2314,5.135-125.4935,7.9037-185.15c2.8899-62.2664,5.7798-124.5327,8.6697-186.7991
		c5.7798-124.5327,11.5596-249.0654,17.3394-373.598c3.8725-83.4369,7.7449-166.8738,11.6174-250.3107
		c14.4369,2.1984,29.3786,5.3035,43.0089,10.6689c3.4902,3.7,11.2598,5.72,13.9399,0.1001c3.1201-2.27,6.48-4.1602,9.8501-6.02
		c3.2197-1.3,7.1299-1.9301,9.3301-4.8801c6.6997-4.0299,13.7598-7.3799,20.5898-11.1899c2.5498-0.21,4.5303-2.03,6.3701-3.64
		c6.4297-3.48,13.5298-6.14,19.0601-11c1.6396-2.9399,0.5-6.9,0.8398-10.22c-0.0103-3.76-0.0298-7.4301-0.1099-11.16
		c0.0801-0.6499,0.2397-1.97,0.3198-2.62c0.75-4.67,0.6899-9.35,0.9902-14.0299c0.7798-4.76,0.77-9.53,0.8799-14.3101
		c-1.6802-1.22-3.1401-2.5701-2.3301-4.8101c-2.6802,0.49-5.23,0.2001-7.48-1.4199c-8.4399,1.85-16.1001-3.29-24.3799-3.47
		c-25.1899-5.9601-49.9302-13.66-74.9902-20.1401c-2.5,0.0801-4.4102,2.1801-6.6499,3.1301c-4.1401,0.33-7.1802,3.5-10.4102,5.75
		c-4.75,2.51-9.2197,5.48-13.8398,8.22c-2.0601-0.16-4.2202,0.74-5.02,2.76c-3.6602,1.98-7.29,4.01-10.8501,6.1499
		c-5.1797,1.2101-9.6797,4.3801-14.1401,7.1901c-2.6699-2.0699-3.8799,0.36-5.3096,2.39c-2.3604,0.24-4.98,0.95-5.3403,3.71
		c-0.4399,13.73-2.5098,27.28-1.9097,41.02c0.5698,3.5601-2.8604,11.66,2.48,12.63c2.4897,0.2999,4.8896,1.0599,7.2397,1.92
		c1.8701,7.59-0.1602,15.3899,0.6802,23.0703c6.1692,56.7992-4.807,119.8424-7.6333,176.9149
		c-3.0844,62.2836-6.1687,124.5671-9.2531,186.8506c-6.1687,124.567-12.3375,249.134-18.5062,373.701
		c-2.5483,56.0627-5.5518,112.1089-8.3276,168.1609c-2.5543,51.5804-13.1924,109.1322-8.1099,160.4221
		c3.681,37.147-4.7494,80.3236-6.5231,117.8519c-1.1728,24.8143-2.3456,49.6288-3.5188,74.454
		c-0.723,15.3849,6.9294,48.2878-7.9746,57.9982c-14.7672,9.6212-34.4408,0.6337-50.0932-1.3296
		c-35.0658-4.3986-32.0027,33.569-31.9523,59.6973c0.1005,52.1444,0.1658,104.2889,0.2487,156.4335
		c0.0986,62.0184,0.1972,124.0367,0.2958,186.0553c0.0493,31.009,0.0975,62.0183,0.1479,93.0276
		c0.0298,18.3555-5.2032,29.8081,11.7987,33.782c32.8614,7.6809,76.9518,0,110.5444,0c124.7657,0,249.5315,0,374.2973,0
		c70.3764,0,140.7528,0,211.1292,0c0,0,32.3999,0,32.3999,0h171.6104h103.9399h20.33h30.1299h33.0498h155.0503h57.0298h12.75
		h62.4302h68.9199h103.8999h93.48h20.4902h202.1299h42.9497h161.4502h11.5898h149.1802h34.7202h97.9497h65.5601h73h125.6504h17.7598
		h88.3896h729.7402h31.4297h463.5703v-273.1001v-196.4199v-68.53v-15.95v-32.6v-46.64c0,0,0-6.85,0-6.8501
		c0-4.2906,1.3701-11.0388-0.1421-15.0189c-1.7166-4.5175-9.5779-1.582-12.7073-0.9731
		C3955.1841,1576.3364,3954.4368,1576.4808,3953.6895,1576.6245z M1531.6904,1422.1432l0.4497-0.8
		c1.52-0.1,2.8701,0.4601,3.8599,1.67c-4.1997-0.04-1.5996,4.61,0.1201,6.26c-1.52,1.1801-5.0898,3.58-4.6201-0.17
		C1531.5503,1427.3632,1531.6401,1423.8832,1531.6904,1422.1432z M1540.7104,1417.2632c0.0601,1.8101,0.1699,5.4301,0.2197,7.24
		c-0.5498,0.15-1.6597,0.4501-2.21,0.6c-0.0098-2.63,0.02-5.21,0.0903-7.74
		C1539.29,1417.3333,1540.2402,1417.2932,1540.7104,1417.2632z M1579.8301,1385.4832c0.6699-1.1,1.3203-2.21,2.1001-3.21
		c-0.21-1.79-0.5498-3.52-1.0098-5.22c-0.5103,2.1899-1.25,4.33-2.2002,6.4099l0.3003,0.63
		c-0.6104-0.0199-1.8301-0.0699-2.4404-0.09c0.3203-3.47,0.1401-7.11,0.27-10.5c0.6602-1.74,1.3999-3.45,3.5-3.59
		c0.6401-0.23,1.9204-0.6801,2.5601-0.91c-0.02,2.98,4.4702,6.4301,1.9702,9.4c0.48,3.24,0.6802,6.29,0.8301,9.66
		c-1.79,0.4199-3.4502,1.64-5.3301,1.4099C1580.1504,1388.1232,1579.9502,1386.7932,1579.8301,1385.4832z M1578.7603,1359.3932
		c-0.54-0.23-1.6299-0.71-2.1699-0.9399c0.2202-3.4701,0.1001-7.1101,0.1997-10.5l-0.2998-0.9701
		c0.4399-1.7799,2.1401-2.6699,3.3501-3.88c1.02,0.2201,2.0498,0.52,3.0801,0.89l0.71,0.23c0,5.4,1.6802,10.5801,2.2598,15.9601
		c-0.1597,1.46,0.2402,3.61-1.96,3.14l-0.9697,0.11c-0.79-0.04-2.3901-0.14-3.1899-0.1901l-0.0303-0.98
		c0.0703-0.46,0.2002-1.37,0.2598-1.83C1579.6904,1360.1732,1579.0703,1359.6532,1578.7603,1359.3932z M1697.6401,1432.2332
		c0.6499,1.4601,0,3.48-1.9199,3.0601C1693.9805,1433.8132,1695.7002,1431.7332,1697.6401,1432.2332z M1700.75,1429.1232
		c-1.3198,0.55-3.8096,0.22-3.0498-1.75c0.5103-0.28,1.5303-0.84,2.04-1.13
		C1700.3701,1427.0732,1700.7104,1428.0332,1700.75,1429.1232z M1482.0103,1447.8932l-0.3301,1.17
		c1.3599,0.0499,2.73,0.1,4.1304,0.1599c0.0098,2.64,0.9395,7.3601-2.9604,7.12c-1.6997,0.4301-2.7197,0.15-3.0498-0.85
		C1480.0605,1452.7131,1477.8701,1447.7832,1482.0103,1447.8932z M1591.0801,1350.1332c0.25-0.27,0.7402-0.8099,0.9902-1.08
		c-0.1602-1.2101-0.2803-2.4-0.3799-3.5701l0.7798-0.4299c3.3599-0.5801,2.0698,3.38,2.5698,5.45
		c-0.4199,2.85-1.4497,6.03-0.6597,8.98c0.0698,0.48,0.1997,1.4301,0.27,1.91c-0.96,0.34-1.9302,0.63-2.9004,0.86l-0.9297,0.05
		c-0.75-0.01-2.2402-0.04-2.9902-0.05c-0.1699-3.12-0.1099-5.9199,0-8.9c0.52-1.36,0.96-2.74,1.4502-4.0699
		C1589.7305,1349.4932,1590.6304,1349.9232,1591.0801,1350.1332z M1594.6201,1370.0232c0.0801,1.79,0.25,5.37,0.3403,7.16
		c-0.3101,1.49-0.7603,2.96-1.2803,4.4099c0.8599,1.8201,1.2603,3.8401,0.2402,5.7201c-1.0903,0.26-2.1602,0.52-3.21,0.7899
		c-0.4702,0.03-1.4102,0.0901-1.8804,0.12l-0.9399-0.0299c-0.0698-0.5-0.2197-1.5-0.29-2c0.27-2.67,0.3203-5.5901,0.9302-8.1001
		c-0.1401-1.98,0.9902-3,2.8599-3.25C1591.6201,1372.6832,1592.1602,1370.5032,1594.6201,1370.0232z M1594.8501,1364.2131
		c0.04,0.8401,0.1304,2.51,0.1802,3.3501l-0.21,0.87C1590.1401,1370.4631,1591.1104,1361.2032,1594.8501,1364.2131z
		 M1702.6802,1452.4432c0.04-0.77,0.1201-2.3201,0.1602-3.0901c1.1899-1.0599,2.3101-2.1899,3.4199-3.33
		c2.9199,0.95,5.1699,4.2,5.6802,7.22C1708.8203,1453.3032,1705.6802,1452.8431,1702.6802,1452.4432z M1595.0703,1341.9832
		c-3.0703,2.16-5.4902,0.24-8.29-1.09c-0.2402-0.41-0.7197-1.24-0.96-1.66c2.5801,0.48,5.27,1.36,7.75-0.1
		C1594.0605,1340.0532,1594.5605,1341.0032,1595.0703,1341.9832z M1492.3901,1452.5931c0.8003-0.1399,2.4102-0.4299,3.21-0.5699
		c1.2002,1.4399,1.0801,2.8-0.6997,3.64C1493.0703,1455.5532,1492.6704,1454.0632,1492.3901,1452.5931z M1482.8403,1461.2032
		c0.0601-0.5,0.1802-1.4901,0.2397-1.9901c1.7803-1.2999,3.6104-2.5499,5.21-4.0599c0.1304,0.92,0.2603,1.86,0.3901,2.83
		C1486.7705,1459.0931,1485.25,1461.3132,1482.8403,1461.2032z M1720.0605,1453.5833c-0.8501,0.4399-1.6802,0.4199-2.4805-0.04
		c0.0801-1.46,0.1401-2.89,0.1699-4.3101c-2.5796-0.73-1.3696,2.37-2.8896,3.17c-0.2002-1.49-0.3501-2.95-0.4702-4.4
		c0.0801-0.46,0.2402-1.37,0.3301-1.83c1.3799-0.48,2.8101-0.8201,4.3003-0.98l-0.0205,0.9099
		C1718.9302,1448.6332,1719.7002,1451.0732,1720.0605,1453.5833z M1714.9502,1427.2532c1.2202,0.0601,2.46,0.16,3.7202,0.3201
		l0.5898,0.8199c-0.3398,2.47-0.5698,5-0.6699,7.58l-0.8701,0.25c0-1.48,0.0103-4.45,0.02-5.9299
		c-4.52-1.25-1.8101,5.6699-1.3701,8.21c0.1504,0.5,0.4502,1.5,0.5903,2l-0.23,0.85c-0.4702-0.01-1.4004-0.0399-1.8701-0.0599
		c-0.27-0.49-0.8101-1.48-1.0703-1.98c-0.1997-3.2101-0.0596-6.0901-0.1196-9.17
		C1714.1001,1429.1732,1714.5303,1428.2032,1714.9502,1427.2532z M1712.0605,1433.2932c-0.0903,1.7-0.29,5.09-0.3804,6.79
		c-0.5098,0.0599-1.52,0.1899-2.02,0.25c-0.5,0.0599-1.5098,0.1699-2.0098,0.22c0.1602,1.26,1.6899,2.9399,0.5,4.0499
		c-1.02,1.55-2.0103-0.74-2.6104-1.39c0-0.4199,0.0103-1.2599,0.0103-1.6899c0.04-1.71,0.1201-3.39,0.1201-5.0601
		c-1.04-0.6799-2.5503-0.8199-3.1099-1.98c0.0996-1.9099,0.2295-3.7999,0.3896-5.6599c1.6802-0.3301,3.5703-0.9401,5.1401,0.21
		l0.6699,0.3099C1709.9004,1430.6031,1711.25,1431.7231,1712.0605,1433.2932z M1708.75,1423.2932
		c-0.0195,0.45-0.0698,1.37-0.0898,1.83c-0.6499,0.0801-1.9497,0.24-2.5996,0.3201c-0.0605-0.49-0.1704-1.4801-0.2202-1.9801
		C1706.5503,1422.2832,1707.8403,1422.3232,1708.75,1423.2932z M1695.6001,1418.3632c-1.6396-1.4399-2.9097-6.9099,0.1704-7
		l1.04-0.22l1.1299-0.24c3.0098-0.34,3.0698,2.11,2.9697,4.49c-0.02,0.73-0.0601,2.1801-0.0698,2.9
		c-0.23,0.3099-0.6899,0.9199-0.9199,1.22l-0.0801,0.9c-1.3003,0.35-2.6099,0.64-3.9102,0.89c-0.0698-0.51-0.1997-1.53-0.27-2.04
		L1695.6001,1418.3632z M1682.3501,1444.0732c1.0601-0.3,2.1401-0.5701,3.2402-0.8101c0.1001,1.26,0.1499,2.55,0.1597,3.86
		c-1.3999,0.12-2.7798,0.22-4.1499,0.29C1681.8003,1446.2732,1682.0605,1445.1632,1682.3501,1444.0732z M1648.5703,1420.0632
		c3.0498,0.97,8.6899-1.91,9.7002,2.2899c-3.3101,1.4601-7-0.1599-10.4502,0.7101l-0.3203-0.7001
		C1647.7705,1421.7932,1648.3003,1420.6432,1648.5703,1420.0632z M1590.54,1303.3333c-2.1699-1.0901-4.9297-2.39-2.8398-5.05
		c2.29,0.2,3.6899,2.3099,5.7998,3.0599c0.3003-0.2999,0.9004-0.9199,1.2002-1.22c0.8203-0.6799,1.8203-1.02,3-1.03
		c0.1201,2.7001,0.1499,5.4301,0.0703,8.2201l-0.9302-0.01C1592.5,1308.2532,1589.9302,1307.6132,1590.54,1303.3333z
		 M1584.5703,1329.9832c2.5,0.13,6.0698-0.72,7.3799,2.11c0.27,0.52,0.8301,1.55,1.1001,2.0701c-0.75,2.53-2.7202,3.67-5.3301,3.21
		l0.21-0.83c-1.5601-0.74-4.8198-0.3201-5.0698-2.3c-0.0103-0.71-0.0303-2.11-0.04-2.8199
		C1583.2603,1331.0632,1584.1304,1330.3431,1584.5703,1329.9832z M1579.8403,1335.1432c2.1699-0.35,1.9302,1.7,2.1401,3.25
		c-1.5103-0.23-3.7305,0.22-3.2402-2.01C1579.0205,1336.0732,1579.5703,1335.4532,1579.8403,1335.1432z M1555.0205,1398.9631
		c-1.4404,2.2201,2.0596,9.89-2.4302,9.1201c0.9399-2.6101-1.4302-1.0701-2.7603-0.7401c-0.04-0.8199-0.1099-2.45-0.1499-3.2599
		c1.0698,0.35,2.1602,0.7,3.27,1.0599c0.0303-1.88-1.0498-3.1801-2.52-4.12
		C1550.9302,1398.7231,1552.9204,1397.3431,1555.0205,1398.9631z M1545.6104,1405.0132c0.2998-0.24,0.8799-0.7,1.1699-0.9399
		c3.9302,0.09,1.1099,5.58,1.9399,8.2799l-1.02,0.1001c-0.46-0.0701-1.3701-0.2301-1.8301-0.3101
		c-0.52,0.17-1.5596,0.51-2.0801,0.6801c0.4805,1.0499,0.8901,2.1399,1.2402,3.2899c-0.8301,0.13-2.5,0.38-3.3398,0.51
		c0.0298-0.83,0.0801-2.48,0.1099-3.3099c-0.2798-2.74,0.1201-5.14,1.1802-7.2101
		C1543.8701,1405.7832,1544.75,1405.4232,1545.6104,1405.0132z M1531.9102,1401.9832c1.3501,2.86,2.0103,6.36,3.2202,9.4
		c-0.8101,0.87-1.9502,1.14-3.4399,0.8C1531.8403,1408.8431,1531.6304,1405.2231,1531.9102,1401.9832z M1527.0903,1426.0732
		c0.3701,0.26,1.1099,0.7699,1.4897,1.0299c1.1401,1.54,1.2402,3.51,1.5903,5.37c-0.2603,1.37-1.1001,1.9501-2.5103,1.7201
		l-0.9497,0.08C1526.7202,1431.4832,1526.8501,1428.7532,1527.0903,1426.0732z M1504.0605,1443.6532
		c2.2798,1.02,9.1299-5.42,7.6396,0.42c-0.6699,0.12-2.02,0.35-2.7002,0.47c-0.21,0.9299,0.9502,2.39-0.1499,3
		c-1.75-0.37-3.4697-0.8-5.1899-1.16C1502.4702,1445.6932,1503.8203,1444.4532,1504.0605,1443.6532z M1492.9204,1430.3132
		c3.5-1.12,2.8501,2.35,3.1001,4.73c-0.5303,0.02-1.5903,0.0599-2.1104,0.09c-0.5-1.37-1.0098-2.73-1.4297-4.0699
		L1492.9204,1430.3132z M1486.6304,1435.9631c2.2598-0.23,2.2397,1.8101,2.46,3.52l-0.1899,0.89
		c-1.2002-0.3199-2.27-0.11-3.2202,0.62c-1.0498,0.5601-2.1001,1.1-3.1401,1.64c0.4102-1.8199-0.3896-4.42,1.4502-5.5599
		C1484.8804,1436.7332,1485.7603,1436.3632,1486.6304,1435.9631z M1474.6304,1433.3632c0.3999,2.9701,0.6899,6.0601,1.1099,9.12
		l0.0601,0.9601c-1.6001-0.29-2.9897-1.3301-3.2202-2.9701C1473.1802,1438.0032,1470.5503,1431.9332,1474.6304,1433.3632z
		 M1473.9302,1451.0032c1.52,3.26,1.3198,7.09,2,10.63c-4.5-1.02-3.0498-7.35-3.0698-10.45L1473.9302,1451.0032z"/>
</g>
</svg>
